<svg width="200" height="200" viewBox="0 0 200 200" fill="none" xmlns="http://www.w3.org/2000/svg">
<circle cx="100" cy="100" r="100" fill="#002855"/>
<path d="M89.0637 158H56.7484C55.975 158 55.4943 157.16 55.8865 156.493L63.5501 143.465C64.4484 141.938 66.0879 141 67.8597 141H80.0395C81.8651 141 83.5457 140.005 84.4235 138.404L132.576 50.5958C133.454 48.9951 135.135 48 136.961 48H145H153.315C154.075 48 154.557 48.8125 154.193 49.4789L149 59L97.8426 152.789C96.0903 156.001 92.7231 158 89.0637 158Z" fill="white"/>
<path opacity="0.7" d="M73.8325 48H57.6998C56.9372 48 56.4553 48.8192 56.8257 49.4858L90.6944 110.431C91.075 111.116 92.0596 111.117 92.4416 110.433L100.641 95.7497C101.486 94.2367 101.487 92.394 100.644 90.8799L78.2011 50.5679C77.3186 48.9827 75.6467 48 73.8325 48Z" fill="white"/>
</svg>
